<svg width="36.312565mm" height="12.592382mm" viewBox="0 0 252 65" fill="none" xmlns="http://www.w3.org/2000/svg">
<path d="M18.6507 46.416C20.0267 46.352 20.9067 45.968 21.2907 45.264C21.7067 44.56 21.9147 43.472 21.9147 42V40.512L21.9627 16.176L17.0187 16.224C15.0347 16.224 13.6107 16.896 12.7467 18.24C11.9147 19.552 11.4987 21.648 11.4987 24.528H9.72266L10.0107 14.4H37.9947L38.2827 24.528H36.4587C36.4267 22.512 36.2187 20.912 35.8347 19.728C35.4827 18.512 34.8587 17.616 33.9627 17.04C33.0987 16.432 31.8507 16.128 30.2187 16.128H26.1387L26.0907 42.288C26.0907 43.984 26.0427 45.248 25.9467 46.08L29.9307 45.888V48H18.6507V46.416ZM41.0018 46.56C41.9298 46.56 42.6018 46.336 43.0178 45.888C43.4338 45.408 43.6738 44.8 43.7378 44.064C43.8338 43.328 43.8818 42.208 43.8818 40.704V18C43.8818 16.784 43.9298 15.744 44.0258 14.88L40.6178 15.072V13.056C42.5378 13.056 43.8978 12.944 44.6978 12.72C45.5298 12.496 46.1698 12.176 46.6178 11.76H48.0098V26.4C49.1298 25.472 50.3938 24.72 51.8018 24.144C53.2098 23.536 54.5698 23.232 55.8818 23.232C58.6338 23.232 60.6338 24.096 61.8818 25.824C63.1298 27.552 63.7698 30.272 63.8018 33.984L63.8498 42.912C63.8498 44.352 63.7858 45.44 63.6578 46.176L66.6818 46.032V48H56.8898V46.56C57.8178 46.56 58.4738 46.336 58.8578 45.888C59.2738 45.408 59.5138 44.816 59.5778 44.112C59.6738 43.376 59.7218 42.24 59.7218 40.704V33.984C59.7218 31.232 59.2898 29.184 58.4258 27.84C57.5618 26.464 56.2018 25.776 54.3458 25.776C53.1618 25.776 51.9778 26.064 50.7938 26.64C49.6418 27.184 48.7138 27.888 48.0098 28.752V42.912C48.0098 44.16 47.9298 45.248 47.7698 46.176L50.7938 46.032V48H41.0018V46.56ZM81.8322 48.768C79.6242 48.768 77.6242 48.256 75.8322 47.232C74.0722 46.176 72.6802 44.688 71.6562 42.768C70.6322 40.816 70.1202 38.576 70.1202 36.048C70.1202 33.808 70.6322 31.712 71.6562 29.76C72.6802 27.776 74.1042 26.192 75.9282 25.008C77.7842 23.824 79.8802 23.232 82.2162 23.232C84.0402 23.232 85.6882 23.632 87.1602 24.432C88.6322 25.232 89.8002 26.432 90.6642 28.032C91.5282 29.6 91.9602 31.536 91.9602 33.84L75.0642 34.128C75.0322 37.968 75.6562 40.96 76.9362 43.104C78.2482 45.248 80.2642 46.32 82.9842 46.32C84.4562 46.32 85.9602 45.936 87.4962 45.168C89.0642 44.4 90.2642 43.456 91.0962 42.336L92.2482 43.296C91.0322 45.152 89.4482 46.528 87.4962 47.424C85.5762 48.32 83.6882 48.768 81.8322 48.768ZM87.4482 32.112C87.4482 30.192 87.0162 28.544 86.1522 27.168C85.2882 25.792 83.9922 25.104 82.2642 25.104C78.2962 25.104 75.9442 27.44 75.2082 32.112H87.4482ZM102.858 48.768C100.522 48.768 98.73 48.24 97.482 47.184C96.266 46.128 95.658 44.752 95.658 43.056C95.658 41.2 96.394 39.632 97.866 38.352C99.37 37.072 101.242 36.128 103.482 35.52C105.754 34.88 108.026 34.576 110.298 34.608V31.632C110.298 29.552 109.994 27.936 109.386 26.784C108.778 25.6 107.482 25.008 105.498 25.008C104.506 25.008 103.562 25.216 102.666 25.632C101.77 26.048 101.114 26.672 100.698 27.504C101.114 27.952 101.322 28.56 101.322 29.328C101.322 29.808 101.146 30.272 100.794 30.72C100.442 31.136 99.93 31.344 99.258 31.344C98.586 31.344 98.058 31.136 97.674 30.72C97.29 30.272 97.098 29.696 97.098 28.992C97.098 27.936 97.498 26.976 98.298 26.112C99.13 25.216 100.266 24.512 101.706 24C103.178 23.488 104.81 23.232 106.602 23.232C109.29 23.232 111.274 23.952 112.554 25.392C113.834 26.8 114.458 29.04 114.426 32.112L114.378 42.912C114.378 43.936 114.314 45.024 114.186 46.176L117.594 45.984V48H110.73C110.634 47.52 110.522 46.608 110.394 45.264C108.058 47.6 105.546 48.768 102.858 48.768ZM103.962 46.032C105.178 46.032 106.282 45.808 107.274 45.36C108.266 44.88 109.274 44.16 110.298 43.2C110.266 42.72 110.25 41.904 110.25 40.752L110.298 36.24C107.674 36.336 105.338 36.88 103.29 37.872C101.242 38.832 100.218 40.32 100.218 42.336C100.218 43.52 100.57 44.432 101.274 45.072C101.978 45.712 102.874 46.032 103.962 46.032ZM130.728 48.768C129.224 48.768 127.848 48.56 126.6 48.144C125.352 47.76 124.28 47.264 123.384 46.656L123.576 48.336H121.56L121.272 40.08H122.76C122.824 41.392 123.176 42.56 123.816 43.584C124.488 44.608 125.352 45.424 126.408 46.032C127.496 46.608 128.648 46.896 129.864 46.896C131.24 46.896 132.456 46.576 133.512 45.936C134.6 45.264 135.144 44.32 135.144 43.104C135.144 42.208 134.872 41.456 134.328 40.848C133.816 40.24 133.16 39.744 132.36 39.36C131.592 38.944 130.504 38.464 129.096 37.92C127.4 37.28 126.04 36.688 125.016 36.144C123.992 35.568 123.112 34.8 122.376 33.84C121.64 32.88 121.272 31.664 121.272 30.192C121.272 29.136 121.528 28.08 122.04 27.024C122.552 25.968 123.416 25.072 124.632 24.336C125.848 23.6 127.464 23.232 129.48 23.232C130.472 23.232 131.48 23.392 132.504 23.712C133.56 24.032 134.536 24.56 135.432 25.296L135.336 23.472H137.352V31.872H135.816C135.72 30.016 135.144 28.416 134.088 27.072C133.064 25.696 131.608 25.008 129.72 25.008C128.28 25.008 127.128 25.376 126.264 26.112C125.432 26.816 125.016 27.664 125.016 28.656C125.016 29.584 125.288 30.368 125.832 31.008C126.408 31.648 127.112 32.192 127.944 32.64C128.776 33.088 129.896 33.584 131.304 34.128C132.968 34.8 134.312 35.424 135.336 36C136.36 36.576 137.224 37.344 137.928 38.304C138.664 39.232 139.032 40.368 139.032 41.712C139.032 43.248 138.632 44.544 137.832 45.6C137.064 46.656 136.04 47.456 134.76 48C133.512 48.512 132.168 48.768 130.728 48.768ZM152.131 48.768C147.747 48.768 145.571 45.824 145.603 39.936L145.699 26.016L142.003 26.064V24C143.539 23.968 144.835 23.28 145.891 21.936C146.979 20.56 147.779 19.008 148.291 17.28H149.923V24H157.987V25.872L149.923 25.968C149.891 30.864 149.859 34.256 149.827 36.144C149.827 38.032 149.827 39.088 149.827 39.312C149.827 41.584 150.099 43.28 150.643 44.4C151.187 45.488 152.131 46.032 153.475 46.032C154.307 46.032 155.123 45.776 155.923 45.264C156.755 44.752 157.475 44.048 158.083 43.152L159.379 44.208C158.131 46.064 156.899 47.296 155.683 47.904C154.467 48.48 153.283 48.768 152.131 48.768ZM161.189 46.56C162.117 46.56 162.789 46.336 163.205 45.888C163.621 45.408 163.861 44.8 163.925 44.064C164.021 43.328 164.069 42.208 164.069 40.704V18C164.069 16.784 164.117 15.744 164.213 14.88L160.805 15.072V13.056C162.725 13.056 164.085 12.944 164.885 12.72C165.717 12.496 166.357 12.176 166.805 11.76H168.197V26.4C169.317 25.472 170.581 24.72 171.989 24.144C173.397 23.536 174.757 23.232 176.069 23.232C178.821 23.232 180.821 24.096 182.069 25.824C183.317 27.552 183.957 30.272 183.989 33.984L184.037 42.912C184.037 44.352 183.973 45.44 183.845 46.176L186.869 46.032V48H177.077V46.56C178.005 46.56 178.661 46.336 179.045 45.888C179.461 45.408 179.701 44.816 179.765 44.112C179.861 43.376 179.909 42.24 179.909 40.704V33.984C179.909 31.232 179.477 29.184 178.613 27.84C177.749 26.464 176.389 25.776 174.533 25.776C173.349 25.776 172.165 26.064 170.981 26.64C169.829 27.184 168.901 27.888 168.197 28.752V42.912C168.197 44.16 168.117 45.248 167.957 46.176L170.981 46.032V48H161.189V46.56ZM197.124 48.768C194.788 48.768 192.996 48.24 191.748 47.184C190.532 46.128 189.924 44.752 189.924 43.056C189.924 41.2 190.66 39.632 192.132 38.352C193.636 37.072 195.508 36.128 197.748 35.52C200.02 34.88 202.292 34.576 204.564 34.608V31.632C204.564 29.552 204.26 27.936 203.652 26.784C203.044 25.6 201.748 25.008 199.764 25.008C198.772 25.008 197.828 25.216 196.932 25.632C196.036 26.048 195.38 26.672 194.964 27.504C195.38 27.952 195.588 28.56 195.588 29.328C195.588 29.808 195.412 30.272 195.06 30.72C194.708 31.136 194.196 31.344 193.524 31.344C192.852 31.344 192.324 31.136 191.94 30.72C191.556 30.272 191.364 29.696 191.364 28.992C191.364 27.936 191.764 26.976 192.564 26.112C193.396 25.216 194.532 24.512 195.972 24C197.444 23.488 199.076 23.232 200.868 23.232C203.556 23.232 205.54 23.952 206.82 25.392C208.1 26.8 208.724 29.04 208.692 32.112L208.644 42.912C208.644 43.936 208.58 45.024 208.452 46.176L211.86 45.984V48H204.996C204.9 47.52 204.788 46.608 204.66 45.264C202.324 47.6 199.812 48.768 197.124 48.768ZM198.228 46.032C199.444 46.032 200.548 45.808 201.54 45.36C202.532 44.88 203.54 44.16 204.564 43.2C204.532 42.72 204.516 41.904 204.516 40.752L204.564 36.24C201.94 36.336 199.604 36.88 197.556 37.872C195.508 38.832 194.484 40.32 194.484 42.336C194.484 43.52 194.836 44.432 195.54 45.072C196.244 45.712 197.14 46.032 198.228 46.032ZM219.906 18.768C219.234 18.768 218.642 18.496 218.13 17.952C217.618 17.376 217.362 16.704 217.362 15.936C217.362 15.168 217.618 14.496 218.13 13.92C218.674 13.344 219.282 13.056 219.954 13.056C220.69 13.056 221.298 13.344 221.778 13.92C222.29 14.464 222.546 15.136 222.546 15.936C222.546 16.704 222.274 17.376 221.73 17.952C221.218 18.496 220.61 18.768 219.906 18.768ZM215.154 46.56C216.082 46.56 216.738 46.336 217.122 45.888C217.538 45.408 217.778 44.816 217.842 44.112C217.938 43.376 217.986 42.24 217.986 40.704V29.76C217.986 28.832 218.05 27.792 218.178 26.64L214.77 26.832V24.816C216.658 24.816 218.002 24.704 218.802 24.48C219.634 24.256 220.274 23.936 220.722 23.52H222.114V42.912C222.114 44.352 222.05 45.44 221.922 46.176L224.946 46.032V48H215.154V46.56Z" fill="black"/>
<rect y="60.6667" width="251.333" height="4.33333" fill="black"/>
<rect width="251.333" height="4.33333" fill="black"/>
</svg>
